<svg width="1518" height="363" viewBox="0 0 1518 363" fill="none" xmlns="http://www.w3.org/2000/svg">
<path d="M89.1 294.8C76.9 294.8 65.4 292.5 54.6 287.9C44 283.3 34.7 276.5 26.7 267.5C18.9 258.3 13 247.1 9 233.9L47.1 218.9C49.9 229.5 54.8 238.4 61.8 245.6C68.8 252.8 78 256.4 89.4 256.4C95 256.4 100.3 255.5 105.3 253.7C110.3 251.7 114.3 248.8 117.3 245C120.5 241.2 122.1 236.5 122.1 230.9C122.1 225.5 120.8 220.9 118.2 217.1C115.6 213.1 111.2 209.4 105 206C99 202.4 90.8 198.7 80.4 194.9L67.2 190.1C61.4 187.9 55.5 185.2 49.5 182C43.7 178.6 38.3 174.5 33.3 169.7C28.5 164.7 24.6 159 21.6 152.6C18.6 146.2 17.1 138.9 17.1 130.7C17.1 119.5 20 109.4 25.8 100.4C31.6 91.2 39.7 83.9 50.1 78.5C60.5 73.1 72.6 70.4 86.4 70.4C100.8 70.4 112.7 72.9 122.1 77.9C131.5 82.7 138.8 88.6 144 95.6C149.4 102.6 153.2 109.4 155.4 116L119.7 131C118.5 127 116.5 123.2 113.7 119.6C110.9 116 107.3 113.1 102.9 110.9C98.5 108.7 93.2 107.6 87 107.6C81.2 107.6 76 108.6 71.4 110.6C66.8 112.4 63.2 115 60.6 118.4C58 121.6 56.7 125.4 56.7 129.8C56.7 136.2 59.4 141.7 64.8 146.3C70.4 150.9 79.3 155.2 91.5 159.2L105 163.7C112.6 166.3 119.8 169.4 126.6 173C133.6 176.4 139.8 180.7 145.2 185.9C150.6 191.1 154.8 197.3 157.8 204.5C161 211.7 162.6 220.3 162.6 230.3C162.6 241.3 160.4 250.9 156 259.1C151.6 267.3 145.8 274 138.6 279.2C131.4 284.4 123.4 288.3 114.6 290.9C106 293.5 97.5 294.8 89.1 294.8ZM165.492 170.6V137H193.692V170.6H165.492ZM242.892 292.4C227.092 292.4 214.692 287.9 205.692 278.9C196.692 269.7 192.192 257.1 192.192 241.1V93.8H231.492V233.9C231.492 241.3 232.992 246.8 235.992 250.4C238.992 253.8 243.892 255.5 250.692 255.5C253.892 255.5 256.892 255.1 259.692 254.3C262.492 253.3 265.992 251.5 270.192 248.9V287.3C265.792 288.9 261.292 290.1 256.692 290.9C252.292 291.9 247.692 292.4 242.892 292.4ZM229.992 170.6V137H268.992V170.6H229.992ZM357.987 294.8C341.987 294.8 327.787 291.3 315.387 284.3C303.187 277.1 293.587 267.4 286.587 255.2C279.787 242.8 276.387 228.9 276.387 213.5C276.387 198.1 279.787 184.3 286.587 172.1C293.587 159.7 303.187 150 315.387 143C327.787 135.8 341.987 132.2 357.987 132.2C373.987 132.2 388.087 135.8 400.287 143C412.487 150.2 421.987 159.9 428.787 172.1C435.787 184.3 439.287 198.1 439.287 213.5C439.287 228.9 435.787 242.8 428.787 255.2C421.987 267.4 412.487 277.1 400.287 284.3C388.087 291.3 373.987 294.8 357.987 294.8ZM357.987 258.2C365.587 258.2 372.487 256.5 378.687 253.1C385.087 249.5 390.187 244.4 393.987 237.8C397.987 231 399.987 222.9 399.987 213.5C399.987 204.1 397.987 196.1 393.987 189.5C390.187 182.9 385.087 177.8 378.687 174.2C372.487 170.6 365.587 168.8 357.987 168.8C350.587 168.8 343.587 170.6 336.987 174.2C330.587 177.8 325.387 182.9 321.387 189.5C317.587 196.1 315.687 204.1 315.687 213.5C315.687 222.9 317.587 231 321.387 237.8C325.387 244.4 330.587 249.5 336.987 253.1C343.587 256.5 350.587 258.2 357.987 258.2ZM459.771 290V137H496.671V157.4H499.071C501.671 152.6 505.071 148.4 509.271 144.8C513.671 141 518.771 138 524.571 135.8C530.371 133.6 536.571 132.5 543.171 132.5C547.171 132.5 550.771 132.8 553.971 133.4C557.171 134 559.971 134.8 562.371 135.8V175.1C558.171 173.5 553.971 172.2 549.771 171.2C545.771 170 541.471 169.4 536.871 169.4C529.071 169.4 522.271 171.4 516.471 175.4C510.871 179.2 506.571 184.5 503.571 191.3C500.571 197.9 499.071 205.4 499.071 213.8V290H459.771ZM640.835 347.9C640.235 349.3 639.635 350.5 639.035 351.5C638.635 352.7 638.235 353.8 637.835 354.8H595.535C596.335 353.2 597.835 349.8 600.035 344.6C602.435 339.6 604.435 335.3 606.035 331.7C607.235 329.3 608.635 326.2 610.235 322.4C611.835 318.6 613.435 314.8 615.035 311C616.835 307.4 618.235 304.6 619.235 302.6L642.335 251.3L650.435 232.1L688.535 137H732.335L653.435 318.8C651.235 324 649.235 328.5 647.435 332.3C645.835 336.1 644.535 339.2 643.535 341.6C642.535 344.2 641.635 346.3 640.835 347.9ZM630.335 287.6L563.735 137H608.435L648.035 232.1H652.535L630.335 287.6ZM748.929 290V75.2H801.129L858.129 226.1H860.529L917.529 75.2H970.029V290H929.829V184.1L932.229 148.4H929.829L875.229 290H843.729L788.829 148.4H786.429L788.829 184.1V290H748.929ZM1051.45 294.8C1040.65 294.8 1031.05 292.7 1022.65 288.5C1014.45 284.1 1007.95 278 1003.15 270.2C998.353 262.4 995.953 253.4 995.953 243.2C995.953 232.6 998.653 223.5 1004.05 215.9C1009.65 208.3 1017.05 202.4 1026.25 198.2C1035.65 194 1046.05 191.9 1057.45 191.9C1063.65 191.9 1069.25 192.3 1074.25 193.1C1079.45 193.7 1084.05 194.5 1088.05 195.5C1092.05 196.5 1095.35 197.6 1097.95 198.8V192.2C1097.95 184 1094.85 177.3 1088.65 172.1C1082.45 166.7 1073.95 164 1063.15 164C1055.95 164 1048.95 165.7 1042.15 169.1C1035.55 172.3 1030.05 176.6 1025.65 182L1000.45 162.2C1005.45 155.8 1011.25 150.4 1017.85 146C1024.45 141.4 1031.75 138 1039.75 135.8C1047.75 133.4 1056.15 132.2 1064.95 132.2C1088.35 132.2 1106.15 137.6 1118.35 148.4C1130.55 159.2 1136.65 175 1136.65 195.8V290H1097.95V274.4H1095.55C1092.75 278 1089.25 281.4 1085.05 284.6C1080.85 287.6 1075.95 290 1070.35 291.8C1064.75 293.8 1058.45 294.8 1051.45 294.8ZM1060.75 264.2C1068.75 264.2 1075.45 262.5 1080.85 259.1C1086.45 255.5 1090.65 250.9 1093.45 245.3C1096.45 239.7 1097.95 233.8 1097.95 227.6C1093.55 225.4 1088.55 223.7 1082.95 222.5C1077.35 221.1 1071.65 220.4 1065.85 220.4C1054.25 220.4 1046.25 222.6 1041.85 227C1037.45 231.4 1035.25 236.8 1035.25 243.2C1035.25 249.2 1037.35 254.2 1041.55 258.2C1045.95 262.2 1052.35 264.2 1060.75 264.2ZM1163.22 354.8V137H1200.12V155.6H1202.52C1205.12 151.6 1208.52 147.8 1212.72 144.2C1217.12 140.6 1222.32 137.7 1228.32 135.5C1234.32 133.3 1241.02 132.2 1248.42 132.2C1262.42 132.2 1274.92 135.7 1285.92 142.7C1297.12 149.5 1305.92 159 1312.32 171.2C1318.92 183.4 1322.22 197.5 1322.22 213.5C1322.22 229.5 1318.92 243.6 1312.32 255.8C1305.92 268 1297.12 277.6 1285.92 284.6C1274.92 291.4 1262.42 294.8 1248.42 294.8C1237.42 294.8 1227.92 292.5 1219.92 287.9C1212.12 283.1 1206.32 277.7 1202.52 271.7H1200.12L1202.52 293.3V354.8H1163.22ZM1241.52 258.5C1248.92 258.5 1255.72 256.7 1261.92 253.1C1268.32 249.3 1273.42 244 1277.22 237.2C1281.22 230.4 1283.22 222.5 1283.22 213.5C1283.22 204.3 1281.22 196.4 1277.22 189.8C1273.42 183.2 1268.32 178.1 1261.92 174.5C1255.72 170.7 1248.92 168.8 1241.52 168.8C1234.32 168.8 1227.52 170.7 1221.12 174.5C1214.92 178.1 1209.82 183.3 1205.82 190.1C1202.02 196.7 1200.12 204.5 1200.12 213.5C1200.12 222.5 1202.02 230.4 1205.82 237.2C1209.82 243.8 1214.92 249 1221.12 252.8C1227.52 256.6 1234.32 258.5 1241.52 258.5Z" fill="white"/>
<path d="M1401.3 294.6C1388.1 294.6 1376.8 292.7 1367.4 288.9C1358.2 285.1 1350.7 280.1 1344.9 273.9C1339.1 267.7 1334.8 260.9 1332 253.5L1367.1 238.2C1370.5 245.4 1375.1 250.9 1380.9 254.7C1386.7 258.3 1393.5 260.1 1401.3 260.1C1407.7 260.1 1413.5 259.1 1418.7 257.1C1423.9 254.9 1426.5 251 1426.5 245.4C1426.5 241.4 1425.1 238.3 1422.3 236.1C1419.7 233.7 1416.4 231.9 1412.4 230.7C1408.4 229.3 1404.3 228.2 1400.1 227.4L1382.1 223.5C1374.7 221.9 1367.7 219.1 1361.1 215.1C1354.5 210.9 1349.1 205.7 1344.9 199.5C1340.9 193.1 1338.9 185.8 1338.9 177.6C1338.9 168.4 1341.5 160.4 1346.7 153.6C1352.1 146.8 1359.3 141.5 1368.3 137.7C1377.5 133.9 1387.6 132 1398.6 132C1408.8 132 1418 133.2 1426.2 135.6C1434.4 138 1441.5 141.7 1447.5 146.7C1453.5 151.5 1458.3 157.7 1461.9 165.3L1428.3 180C1425.1 174 1420.9 169.8 1415.7 167.4C1410.7 165 1405.3 163.8 1399.5 163.8C1392.7 163.8 1387.3 165.1 1383.3 167.7C1379.3 170.3 1377.3 173.4 1377.3 177C1377.3 180.8 1379.3 184.1 1383.3 186.9C1387.3 189.7 1392.1 191.8 1397.7 193.2L1420.2 198.6C1435.4 202.2 1446.8 208 1454.4 216C1462.2 224 1466.1 233.6 1466.1 244.8C1466.1 254.8 1463.2 263.6 1457.4 271.2C1451.6 278.6 1443.8 284.4 1434 288.6C1424.2 292.6 1413.3 294.6 1401.3 294.6Z" fill="white"/>
<circle cx="1445.5" cy="166.5" r="26.5" fill="#FF0055"/>
<path d="M1379.86 243.211C1381.58 244.04 1381.27 246.574 1379.41 246.969L1351.91 252.794C1350.95 252.998 1349.98 252.469 1349.63 251.548L1340.74 228.174C1340.09 226.483 1341.85 224.876 1343.47 225.661L1379.86 243.211Z" fill="white"/>
<path d="M1379.86 243.211C1381.58 244.04 1381.27 246.574 1379.41 246.969L1351.91 252.794C1350.95 252.998 1349.98 252.469 1349.63 251.548L1340.74 228.174C1340.09 226.483 1341.85 224.876 1343.47 225.661L1379.86 243.211Z" fill="white"/>
<path d="M1324.79 264.575C1324.06 266.335 1325.97 268.026 1327.63 267.081L1352.05 253.161C1352.9 252.673 1353.28 251.634 1352.93 250.712L1344.04 227.338C1343.39 225.648 1341.02 225.611 1340.32 227.28L1324.79 264.575Z" fill="white"/>
<path d="M1324.79 264.575C1324.06 266.335 1325.97 268.026 1327.63 267.081L1352.05 253.161C1352.9 252.673 1353.28 251.634 1352.93 250.712L1344.04 227.338C1343.39 225.648 1341.02 225.611 1340.32 227.28L1324.79 264.575Z" fill="white"/>
</svg>
