<svg width="1339" height="363" viewBox="0 0 1339 363" fill="none" xmlns="http://www.w3.org/2000/svg">
<g clip-path="url(#clip0_618_21)">
<path d="M97.1 294.8C84.9 294.8 73.4 292.5 62.6 287.9C52 283.3 42.7 276.5 34.7 267.5C26.9 258.3 21 247.1 17 233.9L55.1 218.9C57.9 229.5 62.8 238.4 69.8 245.6C76.8 252.8 86 256.4 97.4 256.4C103 256.4 108.3 255.5 113.3 253.7C118.3 251.7 122.3 248.8 125.3 245C128.5 241.2 130.1 236.5 130.1 230.9C130.1 225.5 128.8 220.9 126.2 217.1C123.6 213.1 119.2 209.4 113 206C107 202.4 98.8 198.7 88.4 194.9L75.2 190.1C69.4 187.9 63.5 185.2 57.5 182C51.7 178.6 46.3 174.5 41.3 169.7C36.5 164.7 32.6 159 29.6 152.6C26.6 146.2 25.1 138.9 25.1 130.7C25.1 119.5 28 109.4 33.8 100.4C39.6 91.1999 47.7 83.8999 58.1 78.4999C68.5 73.0999 80.6 70.3999 94.4 70.3999C108.8 70.3999 120.7 72.8999 130.1 77.8999C139.5 82.6999 146.8 88.5999 152 95.5999C157.4 102.6 161.2 109.4 163.4 116L127.7 131C126.5 127 124.5 123.2 121.7 119.6C118.9 116 115.3 113.1 110.9 110.9C106.5 108.7 101.2 107.6 95 107.6C89.2 107.6 84 108.6 79.4 110.6C74.8 112.4 71.2 115 68.6 118.4C66 121.6 64.7 125.4 64.7 129.8C64.7 136.2 67.4 141.7 72.8 146.3C78.4 150.9 87.3 155.2 99.5 159.2L113 163.7C120.6 166.3 127.8 169.4 134.6 173C141.6 176.4 147.8 180.7 153.2 185.9C158.6 191.1 162.8 197.3 165.8 204.5C169 211.7 170.6 220.3 170.6 230.3C170.6 241.3 168.4 250.9 164 259.1C159.6 267.3 153.8 274 146.6 279.2C139.4 284.4 131.4 288.3 122.6 290.9C114 293.5 105.5 294.8 97.1 294.8ZM173.492 170.6V137H201.692V170.6H173.492ZM250.892 292.4C235.092 292.4 222.692 287.9 213.692 278.9C204.692 269.7 200.192 257.1 200.192 241.1V93.7999H239.492V233.9C239.492 241.3 240.992 246.8 243.992 250.4C246.992 253.8 251.892 255.5 258.692 255.5C261.892 255.5 264.892 255.1 267.692 254.3C270.492 253.3 273.992 251.5 278.192 248.9V287.3C273.792 288.9 269.292 290.1 264.692 290.9C260.292 291.9 255.692 292.4 250.892 292.4ZM237.992 170.6V137H276.992V170.6H237.992ZM365.987 294.8C349.987 294.8 335.787 291.3 323.387 284.3C311.187 277.1 301.587 267.4 294.587 255.2C287.787 242.8 284.387 228.9 284.387 213.5C284.387 198.1 287.787 184.3 294.587 172.1C301.587 159.7 311.187 150 323.387 143C335.787 135.8 349.987 132.2 365.987 132.2C381.987 132.2 396.087 135.8 408.287 143C420.487 150.2 429.987 159.9 436.787 172.1C443.787 184.3 447.287 198.1 447.287 213.5C447.287 228.9 443.787 242.8 436.787 255.2C429.987 267.4 420.487 277.1 408.287 284.3C396.087 291.3 381.987 294.8 365.987 294.8ZM365.987 258.2C373.587 258.2 380.487 256.5 386.687 253.1C393.087 249.5 398.187 244.4 401.987 237.8C405.987 231 407.987 222.9 407.987 213.5C407.987 204.1 405.987 196.1 401.987 189.5C398.187 182.9 393.087 177.8 386.687 174.2C380.487 170.6 373.587 168.8 365.987 168.8C358.587 168.8 351.587 170.6 344.987 174.2C338.587 177.8 333.387 182.9 329.387 189.5C325.587 196.1 323.687 204.1 323.687 213.5C323.687 222.9 325.587 231 329.387 237.8C333.387 244.4 338.587 249.5 344.987 253.1C351.587 256.5 358.587 258.2 365.987 258.2ZM467.771 290V137H504.671V157.4H507.071C509.671 152.6 513.071 148.4 517.271 144.8C521.671 141 526.771 138 532.571 135.8C538.371 133.6 544.571 132.5 551.171 132.5C555.171 132.5 558.771 132.8 561.971 133.4C565.171 134 567.971 134.8 570.371 135.8V175.1C566.171 173.5 561.971 172.2 557.771 171.2C553.771 170 549.471 169.4 544.871 169.4C537.071 169.4 530.271 171.4 524.471 175.4C518.871 179.2 514.571 184.5 511.571 191.3C508.571 197.9 507.071 205.4 507.071 213.8V290H467.771ZM648.835 347.9C648.235 349.3 647.635 350.5 647.035 351.5C646.635 352.7 646.235 353.8 645.835 354.8H603.535C604.335 353.2 605.835 349.8 608.035 344.6C610.435 339.6 612.435 335.3 614.035 331.7C615.235 329.3 616.635 326.2 618.235 322.4C619.835 318.6 621.435 314.8 623.035 311C624.835 307.4 626.235 304.6 627.235 302.6L650.335 251.3L658.435 232.1L696.535 137H740.335L661.435 318.8C659.235 324 657.235 328.5 655.435 332.3C653.835 336.1 652.535 339.2 651.535 341.6C650.535 344.2 649.635 346.3 648.835 347.9ZM638.335 287.6L571.735 137H616.435L656.035 232.1H660.535L638.335 287.6ZM756.929 290V75.1999H832.529C846.329 75.1999 858.729 78.0999 869.729 83.8999C880.729 89.4999 889.429 97.3999 895.829 107.6C902.429 117.8 905.729 129.6 905.729 143C905.729 156.4 902.429 168.3 895.829 178.7C889.429 188.9 880.729 196.9 869.729 202.7C858.729 208.3 846.329 211.1 832.529 211.1H779.429V172.7H833.729C840.729 172.7 846.629 171.3 851.429 168.5C856.229 165.7 859.829 162.1 862.229 157.7C864.629 153.1 865.829 148.2 865.829 143C865.829 137.8 864.629 133 862.229 128.6C859.829 124.2 856.229 120.6 851.429 117.8C846.629 115 840.729 113.6 833.729 113.6H797.429V290H756.929ZM966.29 294.8C955.49 294.8 945.89 292.7 937.49 288.5C929.29 284.1 922.79 278 917.989 270.2C913.189 262.4 910.789 253.4 910.789 243.2C910.789 232.6 913.489 223.5 918.889 215.9C924.49 208.3 931.89 202.4 941.09 198.2C950.49 194 960.89 191.9 972.29 191.9C978.49 191.9 984.09 192.3 989.09 193.1C994.29 193.7 998.89 194.5 1002.89 195.5C1006.89 196.5 1010.19 197.6 1012.79 198.8V192.2C1012.79 184 1009.69 177.3 1003.49 172.1C997.29 166.7 988.79 164 977.99 164C970.79 164 963.79 165.7 956.99 169.1C950.39 172.3 944.89 176.6 940.49 182L915.289 162.2C920.29 155.8 926.09 150.4 932.69 146C939.29 141.4 946.59 138 954.59 135.8C962.59 133.4 970.99 132.2 979.79 132.2C1003.19 132.2 1020.99 137.6 1033.19 148.4C1045.39 159.2 1051.49 175 1051.49 195.8V290H1012.79V274.4H1010.39C1007.59 278 1004.09 281.4 999.89 284.6C995.69 287.6 990.79 290 985.19 291.8C979.59 293.8 973.29 294.8 966.29 294.8ZM975.59 264.2C983.59 264.2 990.29 262.5 995.69 259.1C1001.29 255.5 1005.49 250.9 1008.29 245.3C1011.29 239.7 1012.79 233.8 1012.79 227.6C1008.39 225.4 1003.39 223.7 997.79 222.5C992.19 221.1 986.49 220.4 980.69 220.4C969.09 220.4 961.09 222.6 956.69 227C952.29 231.4 950.09 236.8 950.09 243.2C950.09 249.2 952.19 254.2 956.39 258.2C960.79 262.2 967.19 264.2 975.59 264.2ZM1062.27 170.6V137H1090.47V170.6H1062.27ZM1139.67 292.4C1123.87 292.4 1111.47 287.9 1102.47 278.9C1093.47 269.7 1088.97 257.1 1088.97 241.1V93.7999H1128.27V233.9C1128.27 241.3 1129.77 246.8 1132.77 250.4C1135.77 253.8 1140.67 255.5 1147.47 255.5C1150.67 255.5 1153.67 255.1 1156.47 254.3C1159.27 253.3 1162.77 251.5 1166.97 248.9V287.3C1162.57 288.9 1158.07 290.1 1153.47 290.9C1149.07 291.9 1144.47 292.4 1139.67 292.4ZM1126.77 170.6V137H1165.77V170.6H1126.77ZM1189.18 290V75.1999H1228.48V129.5L1226.08 156.2H1228.48C1232.88 149.2 1239.18 143.5 1247.38 139.1C1255.78 134.5 1264.98 132.2 1274.98 132.2C1287.58 132.2 1298.18 134.8 1306.78 140C1315.38 145 1321.78 152.2 1325.98 161.6C1330.38 171 1332.58 182.1 1332.58 194.9V290H1293.28V199.7C1293.28 192.9 1291.98 187.3 1289.38 182.9C1286.98 178.3 1283.58 174.8 1279.18 172.4C1274.98 170 1269.98 168.8 1264.18 168.8C1257.18 168.8 1250.98 170.8 1245.58 174.8C1240.18 178.6 1235.98 183.8 1232.98 190.4C1229.98 197 1228.48 204.3 1228.48 212.3V290H1189.18Z" fill="white"/>
<path d="M142 138C158.569 138 172 124.569 172 108C172 91.4315 158.569 78 142 78C125.431 78 112 91.4315 112 108C112 124.569 125.431 138 142 138Z" fill="#FF0055"/>
<path d="M74.4578 222.267C76.1758 223.095 75.8688 225.629 74.0028 226.025L36.4748 233.974C35.5108 234.178 34.5418 233.649 34.1908 232.728L22.0578 200.826C21.4158 199.136 23.1678 197.528 24.7968 198.314L74.4578 222.267Z" fill="white"/>
<path d="M74.4578 222.267C76.1758 223.095 75.8688 225.629 74.0028 226.025L36.4748 233.974C35.5108 234.178 34.5418 233.649 34.1908 232.728L22.0578 200.826C21.4158 199.136 23.1678 197.528 24.7968 198.314L74.4578 222.267Z" fill="white"/>
<path d="M0.395454 250.593C-0.337646 252.354 1.57545 254.044 3.23235 253.099L36.5581 234.101C37.4151 233.613 37.788 232.574 37.437 231.652L25.3041 199.751C24.6611 198.061 22.2841 198.024 21.5881 199.693L0.395454 250.593Z" fill="white"/>
<path d="M0.395454 250.593C-0.337646 252.354 1.57545 254.044 3.23235 253.099L36.5581 234.101C37.4151 233.613 37.788 232.574 37.437 231.652L25.3041 199.751C24.6611 198.061 22.2841 198.024 21.5881 199.693L0.395454 250.593Z" fill="white"/>
</g>
<defs>
<clipPath id="clip0_618_21">
<rect width="1339" height="363" fill="white"/>
</clipPath>
</defs>
</svg>
